<?xml version="1.0" standalone="no"?>
<!DOCTYPE svg PUBLIC "-//W3C//DTD SVG 20010904//EN"
 "http://www.w3.org/TR/2001/REC-SVG-20010904/DTD/svg10.dtd">
<svg version="1.0" xmlns="http://www.w3.org/2000/svg"
 width="250.000000pt" height="100.000000pt" viewBox="0 0 250.000000 100.000000"
 preserveAspectRatio="xMidYMid meet">

<g transform="translate(0.000000,100.000000) scale(0.100000,-0.100000)"
fill="#000000" stroke="none">
<path d="M1106 789 c-115 -12 -116 -18 -1 -12 109 6 198 -10 279 -47 26 -13
58 -20 78 -18 l33 3 -40 18 c-52 24 -168 54 -225 59 -25 3 -81 1 -124 -3z"/>
<path d="M1275 690 c-22 -3 70 -9 205 -12 257 -6 302 -13 390 -58 32 -17 41
-18 31 -7 -25 30 -120 67 -198 77 -81 10 -360 10 -428 0z"/>
<path d="M1666 640 c-55 -17 -97 -77 -95 -137 0 -24 2 -21 14 15 16 53 39 80
82 98 45 19 72 17 118 -7 l40 -21 -19 21 c-10 11 -35 25 -55 31 -41 11 -46 11
-85 0z"/>
<path d="M441 617 c-42 -21 -64 -62 -65 -118 -1 -39 3 -54 18 -65 25 -18 70
-18 85 0 14 17 -1 30 -34 31 -16 0 -21 8 -23 42 -4 50 25 88 59 78 12 -4 21
-1 25 10 7 18 6 20 -21 29 -11 3 -31 0 -44 -7z"/>
<path d="M962 620 c-47 -19 -48 -85 -2 -110 23 -13 26 -42 6 -59 -11 -9 -20
-9 -35 -2 -14 8 -22 8 -27 0 -18 -30 64 -39 89 -11 26 29 21 65 -13 96 -26 22
-29 30 -19 47 8 15 17 19 34 15 20 -5 45 9 34 18 -12 11 -47 13 -67 6z"/>
<path d="M1284 616 c-8 -22 3 -33 18 -18 9 9 9 15 0 24 -9 9 -13 7 -18 -6z"/>
<path d="M1336 541 c-19 -107 -20 -124 -4 -119 7 3 18 38 25 79 7 41 14 86 17
102 4 18 1 27 -8 27 -9 0 -19 -29 -30 -89z"/>
<path d="M530 560 c-18 -11 -6 -25 23 -25 11 0 22 -6 24 -12 3 -8 -5 -13 -20
-13 -34 0 -61 -33 -53 -64 6 -23 11 -25 49 -23 l42 3 9 56 c5 31 6 63 3 72 -7
18 -53 21 -77 6z m40 -85 c0 -16 -27 -32 -37 -21 -7 7 16 36 28 36 5 0 9 -7 9
-15z"/>
<path d="M656 562 c-2 -4 -6 -25 -10 -47 -4 -22 -9 -52 -12 -67 -5 -23 -2 -28
15 -28 16 0 21 9 26 44 5 28 16 52 31 65 13 11 24 25 24 29 0 10 -68 13 -74 4z"/>
<path d="M744 545 c-16 -25 -16 -27 11 -55 23 -24 25 -31 13 -35 -8 -3 -21 -5
-29 -3 -8 2 -14 -4 -14 -12 0 -19 51 -26 71 -9 20 17 17 53 -6 74 -27 24 -25
33 8 37 37 4 34 22 -5 26 -25 3 -35 -2 -49 -23z"/>
<path d="M1088 563 c-31 -5 -34 -11 -43 -86 -5 -39 -4 -57 4 -57 6 0 13 12 16
28 15 72 22 87 39 90 17 4 18 -1 12 -58 -9 -80 14 -80 29 1 7 36 16 55 27 57
24 5 27 -8 17 -62 -5 -27 -7 -52 -4 -54 11 -11 24 15 33 65 7 40 6 57 -4 70
-11 16 -16 16 -35 5 -15 -10 -24 -11 -32 -3 -6 6 -16 10 -21 10 -6 -1 -23 -4
-38 -6z"/>
<path d="M1411 544 c-23 -30 -28 -93 -9 -112 16 -16 53 -15 67 1 15 18 3 29
-19 17 -13 -7 -21 -5 -30 5 -17 21 -3 35 36 35 31 0 34 3 34 28 0 55 -45 69
-79 26z m53 -10 c8 -21 8 -21 -14 -27 -25 -6 -36 9 -20 28 16 19 26 19 34 -1z"/>
<path d="M1267 538 c-3 -13 -9 -45 -13 -72 -5 -39 -4 -48 7 -44 12 4 16 16 33
106 7 38 -18 47 -27 10z"/>
<path d="M1722 531 c-16 -10 -12 -43 6 -49 6 -2 12 4 12 15 0 15 -2 16 -10 3
-9 -13 -10 -13 -10 1 0 8 5 20 12 27 14 14 9 15 -10 3z"/>
<path d="M1680 505 c0 -14 4 -25 9 -25 4 0 6 11 3 25 -2 14 -6 25 -8 25 -2 0
-4 -11 -4 -25z"/>
<path d="M2065 460 c-35 -36 -44 -40 -87 -40 -44 0 -52 5 -50 30 0 3 4 14 7
25 7 18 6 18 -9 -2 -9 -12 -13 -28 -10 -37 4 -11 0 -16 -15 -16 -11 0 -25 -9
-31 -20 -11 -20 -21 -20 -639 -20 l-627 0 -22 -53 c-12 -29 -22 -58 -22 -65 0
-10 132 -12 651 -12 588 1 652 0 663 -15 9 -13 27 -15 96 -13 l85 3 3 94 c3
85 5 97 33 137 37 55 25 57 -26 4z m-68 -67 c-12 -12 -30 -16 -64 -14 -53 3
-58 5 -48 20 3 6 34 11 68 11 58 0 60 -1 44 -17z m53 -88 l0 -75 -85 0 c-50 0
-85 4 -85 10 0 6 9 10 19 10 11 0 22 4 26 10 3 5 11 7 19 4 7 -3 30 20 55 56
23 33 44 60 47 60 2 0 4 -34 4 -75z m-1190 14 c0 -45 -2 -50 -15 -39 -10 9
-15 9 -15 1 0 -19 -38 -12 -45 9 -3 11 -11 20 -16 20 -5 0 -9 -9 -9 -20 0 -11
-4 -20 -10 -20 -5 0 -10 20 -10 45 0 39 3 45 21 45 17 0 19 -3 10 -14 -9 -11
-9 -16 0 -21 6 -4 15 -1 20 6 7 11 12 12 29 1 17 -11 20 -10 20 6 0 17 8 32
17 32 2 0 3 -23 3 -51z m248 33 c2 -7 -3 -12 -12 -12 -10 0 -16 -9 -16 -25 0
-14 6 -25 13 -25 8 0 19 11 25 25 12 25 42 35 42 13 0 -9 3 -9 12 0 17 17 41
15 35 -3 -4 -8 -2 -17 3 -20 6 -4 10 3 10 14 0 18 6 21 40 21 34 0 40 -3 46
-26 4 -14 2 -30 -5 -37 -8 -8 -11 -4 -11 17 0 15 -4 25 -10 21 -5 -3 -10 -15
-10 -26 0 -12 -4 -17 -11 -14 -6 4 -8 13 -5 21 3 7 1 16 -4 19 -6 4 -10 -5
-10 -18 0 -20 -5 -24 -31 -25 -22 0 -29 3 -25 13 3 8 1 17 -4 20 -5 3 -11 -3
-15 -14 -5 -15 -15 -19 -51 -19 -37 0 -47 3 -53 21 -9 23 -5 43 12 65 11 14
29 11 35 -6z m-210 -31 c1 -22 -2 -42 -8 -46 -6 -4 -10 11 -10 39 0 56 14 61
18 7z m30 0 c1 -22 -2 -42 -8 -46 -6 -4 -10 11 -10 39 0 56 14 61 18 7z m82
19 c0 -11 3 -20 8 -20 4 0 7 -11 7 -25 0 -20 -5 -25 -27 -25 -34 0 -39 8 -31
53 4 27 11 37 24 37 12 0 19 -7 19 -20z m514 -11 c11 -58 10 -60 -36 -57 -39
3 -43 6 -46 31 -3 27 21 48 36 32 4 -4 1 -10 -5 -12 -15 -5 -18 -33 -4 -33 15
0 26 23 22 48 -4 35 26 27 33 -9z m-128 -22 c1 -37 -12 -50 -22 -22 -4 8 -14
15 -23 15 -14 0 -14 -2 -1 -10 18 -11 6 -25 -15 -16 -11 4 -15 15 -13 33 2 22
8 28 26 27 12 0 22 4 22 9 0 5 5 7 12 5 7 -3 13 -21 14 -41z m309 0 c0 -41
-16 -44 -26 -6 -7 24 -7 24 -8 -3 -1 -23 -6 -28 -26 -28 -22 0 -25 4 -25 37 0
38 14 36 23 -2 4 -15 5 -14 6 7 1 16 8 28 19 31 30 8 37 1 37 -36z m-275 -2
c0 -19 -4 -35 -10 -35 -5 0 -10 16 -10 35 0 19 5 35 10 35 6 0 10 -16 10 -35z
m176 11 c7 -31 -1 -46 -27 -46 -21 0 -28 39 -6 41 9 0 9 2 -1 6 -15 6 -6 23
13 23 8 0 17 -11 21 -24z m159 5 c8 -26 -4 -51 -25 -51 -10 0 -21 7 -24 16
-10 25 3 54 24 54 10 0 21 -8 25 -19z"/>
<path d="M800 305 c0 -8 5 -15 10 -15 6 0 10 7 10 15 0 8 -4 15 -10 15 -5 0
-10 -7 -10 -15z"/>
<path d="M1135 311 c-3 -5 -1 -12 5 -16 5 -3 10 1 10 9 0 18 -6 21 -15 7z"/>
<path d="M1730 305 c0 -8 5 -15 10 -15 6 0 10 7 10 15 0 8 -4 15 -10 15 -5 0
-10 -7 -10 -15z"/>
<path d="M362 367 c-16 -18 -53 -109 -48 -114 3 -3 23 -2 46 2 39 7 44 11 66
61 13 30 24 57 24 59 0 11 -78 4 -88 -8z"/>
<path d="M482 368 c-15 -20 -53 -110 -48 -116 3 -2 23 -1 46 3 39 7 44 11 66
61 13 30 24 57 24 59 0 11 -78 4 -88 -7z"/>
</g>
</svg>
